<mxfile host="app.diagrams.net" modified="2024-06-26T16:52:35.318Z" agent="Mozilla/5.0 (Windows NT 10.0; Win64; x64) AppleWebKit/537.36 (KHTML, like Gecko) Chrome/126.0.0.0 Safari/537.36" etag="PEzv04dd4NFZzDSrv43-" version="24.5.5" type="device">
  <diagram name="PÃ¡gina-1" id="eixXm7tsP6Xny6ZYl62c">
    <mxGraphModel dx="2261" dy="1907" grid="1" gridSize="10" guides="1" tooltips="1" connect="1" arrows="1" fold="1" page="1" pageScale="1" pageWidth="827" pageHeight="1169" math="0" shadow="0">
      <root>
        <mxCell id="0" />
        <mxCell id="1" parent="0" />
        <mxCell id="e14M_U0_Y1kipxvu9IPv-54" value="" style="rounded=0;whiteSpace=wrap;html=1;" parent="1" vertex="1">
          <mxGeometry x="245" y="100" width="475" height="340" as="geometry" />
        </mxCell>
        <mxCell id="e14M_U0_Y1kipxvu9IPv-34" value="" style="rounded=0;whiteSpace=wrap;html=1;" parent="1" vertex="1">
          <mxGeometry x="525" y="-50" width="130" height="110" as="geometry" />
        </mxCell>
        <mxCell id="e14M_U0_Y1kipxvu9IPv-4" value="" style="rounded=0;whiteSpace=wrap;html=1;dashed=1;" parent="1" vertex="1">
          <mxGeometry x="270" y="110" width="190" height="310" as="geometry" />
        </mxCell>
        <mxCell id="e14M_U0_Y1kipxvu9IPv-15" value="" style="rounded=0;whiteSpace=wrap;html=1;dashed=1;" parent="1" vertex="1">
          <mxGeometry x="500" y="110" width="170" height="210" as="geometry" />
        </mxCell>
        <mxCell id="e14M_U0_Y1kipxvu9IPv-1" value="" style="rounded=0;whiteSpace=wrap;html=1;dashed=1;" parent="1" vertex="1">
          <mxGeometry x="20" y="20" width="170" height="110" as="geometry" />
        </mxCell>
        <mxCell id="e14M_U0_Y1kipxvu9IPv-22" style="edgeStyle=orthogonalEdgeStyle;rounded=0;orthogonalLoop=1;jettySize=auto;html=1;exitX=1;exitY=0.5;exitDx=0;exitDy=0;entryX=0;entryY=0.5;entryDx=0;entryDy=0;" parent="1" source="e14M_U0_Y1kipxvu9IPv-2" target="e14M_U0_Y1kipxvu9IPv-5" edge="1">
          <mxGeometry relative="1" as="geometry">
            <Array as="points">
              <mxPoint x="220" y="70" />
              <mxPoint x="220" y="170" />
            </Array>
          </mxGeometry>
        </mxCell>
        <mxCell id="e14M_U0_Y1kipxvu9IPv-2" value="controller" style="rounded=0;whiteSpace=wrap;html=1;" parent="1" vertex="1">
          <mxGeometry x="45" y="40" width="120" height="60" as="geometry" />
        </mxCell>
        <mxCell id="e14M_U0_Y1kipxvu9IPv-3" value="&lt;h1 style=&quot;margin-top: 0px;&quot;&gt;&lt;span style=&quot;font-weight: normal;&quot;&gt;&lt;font style=&quot;font-size: 16px;&quot;&gt;API&lt;/font&gt;&lt;/span&gt;&lt;/h1&gt;" style="text;html=1;whiteSpace=wrap;overflow=hidden;rounded=0;fontStyle=0" parent="1" vertex="1">
          <mxGeometry x="20" y="100" width="80" height="40" as="geometry" />
        </mxCell>
        <mxCell id="e14M_U0_Y1kipxvu9IPv-28" style="edgeStyle=orthogonalEdgeStyle;rounded=0;orthogonalLoop=1;jettySize=auto;html=1;exitX=1;exitY=0.5;exitDx=0;exitDy=0;" parent="1" source="e14M_U0_Y1kipxvu9IPv-5" target="e14M_U0_Y1kipxvu9IPv-14" edge="1">
          <mxGeometry relative="1" as="geometry">
            <Array as="points">
              <mxPoint x="470" y="170" />
              <mxPoint x="470" y="263" />
            </Array>
          </mxGeometry>
        </mxCell>
        <mxCell id="fR0H_QJESCKlFLvwVIpQ-4" style="edgeStyle=orthogonalEdgeStyle;rounded=0;orthogonalLoop=1;jettySize=auto;html=1;exitX=0.5;exitY=0;exitDx=0;exitDy=0;entryX=0;entryY=0.5;entryDx=0;entryDy=0;" edge="1" parent="1" source="e14M_U0_Y1kipxvu9IPv-5" target="e14M_U0_Y1kipxvu9IPv-34">
          <mxGeometry relative="1" as="geometry" />
        </mxCell>
        <mxCell id="e14M_U0_Y1kipxvu9IPv-5" value="service" style="rounded=0;whiteSpace=wrap;html=1;" parent="1" vertex="1">
          <mxGeometry x="295" y="140" width="120" height="60" as="geometry" />
        </mxCell>
        <mxCell id="e14M_U0_Y1kipxvu9IPv-6" value="&lt;h1 style=&quot;margin-top: 0px;&quot;&gt;&lt;span style=&quot;font-weight: normal;&quot;&gt;&lt;font style=&quot;font-size: 16px;&quot;&gt;DOMAIN&lt;/font&gt;&lt;/span&gt;&lt;/h1&gt;" style="text;html=1;whiteSpace=wrap;overflow=hidden;rounded=0;fontStyle=0" parent="1" vertex="1">
          <mxGeometry x="270" y="380" width="70" height="30" as="geometry" />
        </mxCell>
        <mxCell id="e14M_U0_Y1kipxvu9IPv-33" style="edgeStyle=orthogonalEdgeStyle;rounded=0;orthogonalLoop=1;jettySize=auto;html=1;exitX=0.5;exitY=1;exitDx=0;exitDy=0;entryX=0.5;entryY=0;entryDx=0;entryDy=0;" parent="1" source="e14M_U0_Y1kipxvu9IPv-7" target="e14M_U0_Y1kipxvu9IPv-14" edge="1">
          <mxGeometry relative="1" as="geometry" />
        </mxCell>
        <mxCell id="e14M_U0_Y1kipxvu9IPv-7" value="repositoryImpl jdbc" style="rounded=0;whiteSpace=wrap;html=1;" parent="1" vertex="1">
          <mxGeometry x="525" y="120" width="120" height="60" as="geometry" />
        </mxCell>
        <mxCell id="e14M_U0_Y1kipxvu9IPv-10" value="model" style="rounded=0;whiteSpace=wrap;html=1;" parent="1" vertex="1">
          <mxGeometry x="295" y="222.5" width="120" height="60" as="geometry" />
        </mxCell>
        <mxCell id="e14M_U0_Y1kipxvu9IPv-12" value="exception" style="rounded=0;whiteSpace=wrap;html=1;" parent="1" vertex="1">
          <mxGeometry x="295" y="302.5" width="120" height="60" as="geometry" />
        </mxCell>
        <mxCell id="fR0H_QJESCKlFLvwVIpQ-8" style="edgeStyle=orthogonalEdgeStyle;rounded=0;orthogonalLoop=1;jettySize=auto;html=1;exitX=1;exitY=0.5;exitDx=0;exitDy=0;entryX=0;entryY=0.5;entryDx=0;entryDy=0;" edge="1" parent="1" source="e14M_U0_Y1kipxvu9IPv-14" target="fR0H_QJESCKlFLvwVIpQ-5">
          <mxGeometry relative="1" as="geometry" />
        </mxCell>
        <mxCell id="e14M_U0_Y1kipxvu9IPv-14" value="repository" style="rounded=0;whiteSpace=wrap;html=1;" parent="1" vertex="1">
          <mxGeometry x="525" y="222.5" width="120" height="60" as="geometry" />
        </mxCell>
        <mxCell id="e14M_U0_Y1kipxvu9IPv-16" value="&lt;h1 style=&quot;margin-top: 0px;&quot;&gt;&lt;span style=&quot;font-weight: normal;&quot;&gt;&lt;font style=&quot;font-size: 16px;&quot;&gt;INFRA&lt;/font&gt;&lt;/span&gt;&lt;/h1&gt;" style="text;html=1;whiteSpace=wrap;overflow=hidden;rounded=0;fontStyle=0" parent="1" vertex="1">
          <mxGeometry x="500" y="282.5" width="70" height="30" as="geometry" />
        </mxCell>
        <mxCell id="e14M_U0_Y1kipxvu9IPv-21" style="edgeStyle=orthogonalEdgeStyle;rounded=0;orthogonalLoop=1;jettySize=auto;html=1;entryX=0;entryY=0.5;entryDx=0;entryDy=0;" parent="1" source="e14M_U0_Y1kipxvu9IPv-20" target="e14M_U0_Y1kipxvu9IPv-2" edge="1">
          <mxGeometry relative="1" as="geometry" />
        </mxCell>
        <mxCell id="e14M_U0_Y1kipxvu9IPv-20" value="Client" style="sketch=0;outlineConnect=0;fontColor=#232F3E;gradientColor=none;strokeColor=#232F3E;fillColor=#ffffff;dashed=0;verticalLabelPosition=bottom;verticalAlign=top;align=center;html=1;fontSize=12;fontStyle=0;aspect=fixed;shape=mxgraph.aws4.resourceIcon;resIcon=mxgraph.aws4.client;" parent="1" vertex="1">
          <mxGeometry x="-130" y="40" width="60" height="60" as="geometry" />
        </mxCell>
        <mxCell id="e14M_U0_Y1kipxvu9IPv-41" value="&lt;h1 style=&quot;margin-top: 0px;&quot;&gt;&lt;span style=&quot;font-weight: normal;&quot;&gt;&lt;font style=&quot;font-size: 16px;&quot;&gt;CACHE&lt;/font&gt;&lt;/span&gt;&lt;/h1&gt;" style="text;html=1;whiteSpace=wrap;overflow=hidden;rounded=0;fontStyle=0" parent="1" vertex="1">
          <mxGeometry x="555" y="-19" width="70" height="30" as="geometry" />
        </mxCell>
        <mxCell id="e14M_U0_Y1kipxvu9IPv-42" value="" style="image;sketch=0;aspect=fixed;html=1;points=[];align=center;fontSize=12;image=img/lib/mscae/Cache_Redis_Product.svg;" parent="1" vertex="1">
          <mxGeometry x="616" y="27.6" width="35" height="29.4" as="geometry" />
        </mxCell>
        <mxCell id="fR0H_QJESCKlFLvwVIpQ-5" value="" style="rounded=0;whiteSpace=wrap;html=1;" vertex="1" parent="1">
          <mxGeometry x="780" y="197.5" width="130" height="110" as="geometry" />
        </mxCell>
        <mxCell id="e14M_U0_Y1kipxvu9IPv-56" value="" style="strokeWidth=2;html=1;shape=mxgraph.flowchart.database;whiteSpace=wrap;" parent="1" vertex="1">
          <mxGeometry x="880" y="272.5" width="20" height="20" as="geometry" />
        </mxCell>
        <mxCell id="fR0H_QJESCKlFLvwVIpQ-6" style="edgeStyle=orthogonalEdgeStyle;rounded=0;orthogonalLoop=1;jettySize=auto;html=1;exitX=0.5;exitY=1;exitDx=0;exitDy=0;" edge="1" parent="1" source="fR0H_QJESCKlFLvwVIpQ-5" target="fR0H_QJESCKlFLvwVIpQ-5">
          <mxGeometry relative="1" as="geometry" />
        </mxCell>
        <mxCell id="fR0H_QJESCKlFLvwVIpQ-7" value="&lt;h1 style=&quot;margin-top: 0px;&quot;&gt;&lt;span style=&quot;font-weight: normal;&quot;&gt;&lt;font style=&quot;font-size: 16px;&quot;&gt;H2&lt;/font&gt;&lt;/span&gt;&lt;/h1&gt;" style="text;html=1;whiteSpace=wrap;overflow=hidden;rounded=0;fontStyle=0;align=center;" vertex="1" parent="1">
          <mxGeometry x="810" y="230" width="70" height="30" as="geometry" />
        </mxCell>
      </root>
    </mxGraphModel>
  </diagram>
</mxfile>
